<?xml version="1.0" encoding="UTF-8" standalone="no"?>
<svg
   width="301"
   height="301"
   version="1.1"
   id="svg276"
   sodipodi:docname="background.svg"
   inkscape:version="1.1.2 (0a00cf5339, 2022-02-04)"
   xmlns:inkscape="http://www.inkscape.org/namespaces/inkscape"
   xmlns:sodipodi="http://sodipodi.sourceforge.net/DTD/sodipodi-0.dtd"
   xmlns="http://www.w3.org/2000/svg"
   xmlns:svg="http://www.w3.org/2000/svg">
  <sodipodi:namedview
     id="namedview35"
     pagecolor="#ffffff"
     bordercolor="#666666"
     borderopacity="1.0"
     inkscape:pageshadow="2"
     inkscape:pageopacity="0.0"
     inkscape:pagecheckerboard="true"
     showgrid="false"
     inkscape:zoom="2.1129568"
     inkscape:cx="92.997642"
     inkscape:cy="122.34041"
     inkscape:window-width="1920"
     inkscape:window-height="1012"
     inkscape:window-x="1920"
     inkscape:window-y="0"
     inkscape:window-maximized="1"
     inkscape:current-layer="svg276" />
  <defs
     id="defs280" />
  <path
     d="m 244.8606,165.46525 4.71181,0.91589 -2.99189,15.39191 -4.71181,-0.91588 z m 10.07762,-4.88688 4.39768,0.85482 -4.27412,21.98845 -4.39769,-0.85482 z m 6.35302,14.27447 4.39769,0.85483 -1.83177,9.42362 -4.39769,-0.85482 z"
     fill="currentColor"
     id="path4"
     style="stroke:none;stroke-width:3.2" />
  <rect
     transform="rotate(11)"
     x="271.93408"
     y="108.98359"
     width="22.4"
     height="22.4"
     fill="transparent"
     stroke="none"
     class="shape-overlay"
     id="rect12"
     style="fill:none;stroke-width:3.2" />
  <path
     d="m 255.65,256.6 c -3.757,0 -6.8,3.043 -6.8,6.8 0,3.757 3.043,6.8 6.8,6.8 3.757,0 6.8,-3.043 6.8,-6.8 0,-3.757 -3.043,-6.8 -6.8,-6.8 z m 0,10.2 c -1.87,0 -3.4,-1.53 -3.4,-3.4 0,-1.87 1.53,-3.4 3.4,-3.4 1.87,0 3.4,1.53 3.4,3.4 0,1.87 -1.53,3.4 -3.4,3.4 z m 13.617,-1.7 c -2.805,0 -5.1,2.295 -5.1,5.1 0,2.805 2.295,5.1 5.1,5.1 2.805,0 5.1,-2.295 5.1,-5.1 0,-2.805 -2.295,-5.1 -5.1,-5.1 z m 0,6.8 c -0.935,0 -1.7,-0.765 -1.7,-1.7 0,-0.935 0.765,-1.7 1.7,-1.7 0.935,0 1.7,0.765 1.7,1.7 0,0.935 -0.765,1.7 -1.7,1.7 z m 2.533,-27.2 c -5.151,0 -9.35,4.199 -9.35,9.35 0,5.151 4.199,9.35 9.35,9.35 5.151,0 9.35,-4.199 9.35,-9.35 0,-5.151 -4.199,-9.35 -9.35,-9.35 z m 0,15.3 c -3.281,0 -5.95,-2.669 -5.95,-5.95 0,-3.281 2.669,-5.95 5.95,-5.95 3.281,0 5.95,2.669 5.95,5.95 0,3.281 -2.669,5.95 -5.95,5.95 z"
     fill="currentColor"
     id="path22"
     style="stroke:none;stroke-width:3.4" />
  <rect
     x="248.85001"
     y="244.7"
     width="32.299999"
     height="30.6"
     fill="transparent"
     stroke="none"
     class="shape-overlay"
     id="rect30"
     style="fill:none;stroke-width:3.4" />
  <path
     d="m 167.94609,191.95503 -2.37045,-0.37545 -0.37545,2.37046 -2.37045,-0.37545 -2.25265,14.22271 2.37045,0.37545 -0.37545,2.37045 2.37046,0.37544 0.37544,-2.37045 2.37045,0.37544 2.25266,-14.22271 -2.37045,-0.37544 z m -2.25266,14.22271 -2.37045,-0.37544 1.50177,-9.48181 2.37045,0.37544 z m 13.35403,-7.6046 -2.37045,-0.37544 0.75089,-4.7409 -2.37046,-0.37545 -0.75088,4.74091 -2.37045,-0.37544 -1.31405,8.29658 2.37045,0.37544 -0.93861,5.92613 2.37045,0.37544 0.93861,-5.92613 2.37045,0.37545 z m -3.30906,5.55069 -2.37045,-0.37544 0.56317,-3.55568 2.37045,0.37544 z"
     fill="currentColor"
     id="path40"
     style="stroke:none;stroke-width:2.4" />
  <rect
     transform="rotate(9.0000002)"
     x="191.10678"
     y="163.31918"
     width="16.799999"
     height="19.200001"
     fill="transparent"
     stroke="none"
     class="shape-overlay"
     id="rect48"
     style="fill:none;stroke-width:2.4" />
  <path
     d="m 45.165355,233.71728 c 2.62654,-0.51054 3.352262,-2.71543 3.994506,-4.66112 0.651596,-1.97777 1.21348,-3.68597 3.466314,-4.12387 2.252835,-0.43791 3.41459,0.93524 4.75874,2.52508 1.324348,1.56343 2.82319,3.3359 5.44973,2.82535 l 3.533858,-0.68691 -0.343456,-1.76693 -3.533858,0.68691 c -1.513375,0.29417 -2.403151,-0.65142 -3.732407,-2.22123 -1.41833,-1.67902 -3.186041,-3.76872 -6.476063,-3.1292 -3.290022,0.63951 -4.144433,3.2389 -4.832282,5.32732 -0.645459,1.95273 -1.116047,3.16368 -2.628538,3.45767 l -1.766929,0.34346 -2.060737,-10.60157 -1.766929,0.34345 4.464931,22.97008 a 1.8,1.8 0 0 0 2.110385,1.42347 l 22.970076,-4.46493 -0.343456,-1.76693 -1.766929,0.34346 -1.030369,-5.30079 -1.766929,0.34346 1.030369,5.30078 -3.533858,0.68692 -1.373825,-7.06772 -1.766929,0.34346 1.373825,7.06771 -3.533858,0.68692 L 54,232 l -1.766929,0.34346 2.060737,10.60157 -3.533857,0.68691 -1.373825,-7.06771 -1.766929,0.34345 1.373825,7.06772 -3.533858,0.68691 -2.060738,-10.60157 z"
     fill="currentColor"
     id="path58"
     style="stroke:none;stroke-width:1.8" />
  <rect
     transform="rotate(-11)"
     x="-3.8598201"
     y="225.44119"
     width="25.200001"
     height="25.200001"
     fill="transparent"
     stroke="none"
     class="shape-overlay"
     id="rect66"
     style="fill:none;stroke-width:1.8" />
  <path
     d="m 107.55118,170.16943 a 8.99,8.99 0 1 0 -13.925005,-11.292 5.997,5.997 0 1 0 -8.556,7.342 6.997,6.997 0 1 0 7.994,11.484 5.998,5.998 0 0 0 11.955005,-0.706 c 0,-0.122 -0.011,-0.24 -0.018,-0.36 a 3.487,3.487 0 1 0 2.55,-6.468 z m -6.532,-13.172 a 7,7 0 1 1 -7.000005,7 7.008,7.008 0 0 1 7.000005,-7 z m -13.000005,0 a 4,4 0 1 1 -4,4 4.005,4.005 0 0 1 4,-4 z m 11,24 a 4,4 0 1 1 4.000005,-4 4.005,4.005 0 0 1 -4.000005,4 z"
     fill="currentColor"
     id="path76"
     style="stroke:none;stroke-width:2" />
  <rect
     x="81.982407"
     y="154.99866"
     width="28.035189"
     height="28.002674"
     fill="transparent"
     stroke="none"
     class="shape-overlay"
     id="rect84"
     style="fill:none;stroke-width:2" />
  <g
     transform="matrix(1.185226,-0.18772136,0.18772136,1.185226,161.03284,7.0399256)"
     id="g108"
     style="fill:#000000;stroke:none;stroke-width:2;fill-opacity:1">
    <path
       d="M 23,24 C 19.4,24 17.97,19.824 16.587,15.786 15.277,11.958 13.92,8 11,8 A 3.44,3.44 0 0 0 7.947,10.321 L 6.05,9.684 C 6.101,9.534 7.321,6 11,6 c 4.35,0 6.012,4.855 7.48,9.138 C 19.689,18.667 20.83,22 23,22 a 3.44,3.44 0 0 0 3.053,-2.321 l 1.896,0.637 C 27.899,20.466 26.679,24 23,24 Z"
       fill="currentColor"
       id="path94"
       style="fill:#000000;fill-opacity:1" />
    <path
       d="M 4,28 V 17 H 6 V 15 H 4 V 2 H 2 v 26 a 2,2 0 0 0 2,2 h 26 v -2 z"
       fill="currentColor"
       id="path96"
       style="fill:#000000;fill-opacity:1" />
    <path
       d="m 8,15 h 2 v 2 H 8 Z"
       fill="currentColor"
       id="path98"
       style="fill:#000000;fill-opacity:1" />
    <path
       d="m 12,15 h 2 v 2 h -2 z"
       fill="currentColor"
       id="path100"
       style="fill:#000000;fill-opacity:1" />
    <path
       d="m 20,15 h 2 v 2 h -2 z"
       fill="currentColor"
       id="path102"
       style="fill:#000000;fill-opacity:1" />
    <path
       d="m 24,15 h 2 v 2 h -2 z"
       fill="currentColor"
       id="path104"
       style="fill:#000000;fill-opacity:1" />
    <path
       d="m 28,15 h 2 v 2 h -2 z"
       fill="currentColor"
       id="path106"
       style="fill:#000000;fill-opacity:1" />
  </g>
  <rect
     transform="rotate(-9.0000002)"
     x="160.34897"
     y="34.544338"
     width="33.599998"
     height="33.599998"
     fill="transparent"
     stroke="none"
     class="shape-overlay"
     id="rect158"
     style="fill:none;stroke-width:2.4" />
  <path
     d="m 20.5,105.5 -14,11 6,17 h 16 l 6,-17 z m 2.582,19.265 -5.986,1.33 -1.423,-7.824 4.91,-4.21 5.442,4.082 z m 0.198,2.005 2.546,4.73 H 15.174 l 1.79,-3.327 z m -9.19,-9.776 -3.85,-0.889 9.26,-7.276 v 3.528 z m 7.41,-4.744 v -3.42 l 9.26,7.275 -3.15,0.727 z m -12.386,5.648 4.654,1.074 1.484,8.164 -1.738,3.228 z m 18.372,12.466 -2.577,-4.785 3.007,-6.765 3.97,-0.916 z"
     fill="currentColor"
     id="path168"
     style="stroke:none;stroke-width:2;fill:#000000;fill-opacity:1" />
  <rect
     x="6.5"
     y="105.5"
     width="28"
     height="28"
     fill="transparent"
     stroke="none"
     class="shape-overlay"
     id="rect176"
     style="fill:none;stroke-width:2" />
  <path
     d="m 204.49985,96.49082 a 4.7952,4.7952 0 0 0 -4.6296,3.6 h -5.0544 a 9.5952,9.5952 0 1 0 -10.716,10.716 v 5.0544 a 4.8,4.8 0 1 0 2.4,0 v -5.0532 a 9.5412,9.5412 0 0 0 4.6776,-1.944 l 4.4028,4.404 a 4.7436,4.7436 0 0 0 -0.6804,2.4228 4.8,4.8 0 1 0 4.8,-4.8 4.7424,4.7424 0 0 0 -2.4228,0.6804 l -4.404,-4.404 a 9.54,9.54 0 0 0 1.9452,-4.6764 h 5.0532 a 4.7916,4.7916 0 1 0 4.6284,-6 z m -16.8,24 a 2.4,2.4 0 1 1 -2.4,-2.4 2.4024,2.4024 0 0 1 2.4,2.4 z m -2.4,-12 a 7.2,7.2 0 1 1 7.2,-7.2 7.2084,7.2084 0 0 1 -7.2,7.2 z m 16.8,7.2 a 2.4,2.4 0 1 1 -2.4,-2.4 2.4024,2.4024 0 0 1 2.4,2.4 z m 2.4,-12 a 2.4,2.4 0 1 1 2.4,-2.4 2.4024,2.4024 0 0 1 -2.4,2.4 z"
     fill="currentColor"
     id="path186"
     style="stroke:none;stroke-width:2.4" />
  <rect
     x="175.70023"
     y="91.6912"
     width="33.599541"
     height="33.617603"
     fill="transparent"
     stroke="none"
     class="shape-overlay"
     id="rect194"
     style="fill:none;stroke-width:2.4" />
  <path
     d="m 144.5,249.9 a 12.6,12.6 0 1 0 12.6,12.6 12.6144,12.6144 0 0 0 -12.6,-12.6 z m 10.755,11.7009 h -5.436 a 5.3838,5.3838 0 0 0 -8.442,-3.4965 l -3.843,-3.843 A 10.7802,10.7802 0 0 1 155.255,261.6 Z M 144.5,266.1 a 3.6,3.6 0 1 1 3.6,-3.6 3.6045,3.6045 0 0 1 -3.6,3.6 z m -10.8,-3.6 a 10.7433,10.7433 0 0 1 2.5614,-6.966 l 3.843,3.843 a 5.3856,5.3856 0 0 0 3.4956,8.442 v 5.436 A 10.809,10.809 0 0 1 133.7,262.5 Z m 11.7,10.755 v -5.436 a 5.4063,5.4063 0 0 0 4.419,-4.419 h 5.436 a 10.8072,10.8072 0 0 1 -9.855,9.855 z"
     fill="currentColor"
     id="path204"
     style="stroke:none;stroke-width:1.8" />
  <rect
     x="131.89999"
     y="249.89999"
     width="25.200001"
     height="25.200001"
     fill="transparent"
     stroke="none"
     class="shape-overlay"
     id="rect212"
     style="fill:none;stroke-width:1.8" />
  <path
     d="m 108.48541,63.514005 a 13.919,13.919 0 0 0 -8.675004,3.033 1.973,1.973 0 0 0 -0.325,-0.033 2,2 0 0 0 -2,2 1.975,1.975 0 0 0 0.033,0.325 13.986,13.986 0 1 0 10.967004,-5.325 z m 0,26 a 11.977,11.977 0 0 1 -9.641004,-19.114 1.831,1.831 0 0 0 1.153,0.04 l 1.463004,1.463 a 8.986,8.986 0 0 0 11.831,13.207 1.992,1.992 0 0 0 2.79,-2.79 8.93,8.93 0 0 0 0,-9.612 1.992,1.992 0 0 0 -2.79,-2.79 8.944,8.944 0 0 0 -10.417,0.571 l -1.463,-1.463 a 1.83,1.83 0 0 0 -0.04,-1.153 11.992,11.992 0 1 1 7.114,21.641 z m 0,-14 a 2,2 0 1 1 -2,2 2.002,2.002 0 0 1 2,-2 z m 3.433,-0.019 2.055,-2.055 a 2.044,2.044 0 0 0 0.227,0.045 6.957,6.957 0 0 1 0,8.058 2.044,2.044 0 0 0 -0.227,0.045 l -2.055,-2.055 a 3.879,3.879 0 0 0 0,-4.038 z m 0.596,-3.696 a 2,2 0 0 0 0.045,0.227 l -2.055,2.055 a 3.879,3.879 0 0 0 -4.038,0 l -2.165,-2.167 a 6.952,6.952 0 0 1 8.213,-0.116 z m -7.462,3.696 a 3.951,3.951 0 0 0 -0.567,2.019 4.005,4.005 0 0 0 4,4 3.952,3.952 0 0 0 2.019,-0.567 l 2.055,2.055 a 2,2 0 0 0 -0.045,0.227 6.988,6.988 0 0 1 -9.627,-9.9 z"
     fill="currentColor"
     id="path222"
     style="stroke:none;stroke-width:2;fill:#000000;fill-opacity:1" />
  <rect
     x="94.514"
     y="63.514"
     width="27.972"
     height="27.972"
     fill="transparent"
     stroke="none"
     class="shape-overlay"
     id="rect230"
     style="fill:none;stroke-width:2" />
  <path
     d="m 267.4998,39.492085 a 1,1 0 0 0 -1,1 v 7.09 a 5.962,5.962 0 0 0 -2.46,1.043 l -4.702,-4.702 a 1.455,1.455 0 0 0 -2.087,0.024 14.05,14.05 0 0 0 4.054,22.142 10.848,10.848 0 0 0 1.899,0.768 14.098,14.098 0 0 0 13.844,-3.132 1.434,1.434 0 0 0 0.028,-2.064 l -4.699,-4.699 a 5.963,5.963 0 0 0 1.033,-2.47 h 7.09 a 1,1 0 0 0 1,-1 14.016,14.016 0 0 0 -14,-14 z m 0,10 a 4,4 0 1 1 -4,4 4.005,4.005 0 0 1 4,-4 z m -9.17,-3.749 4.296,4.296 a 5.91,5.91 0 0 0 -0.011,6.924 l -4.277,4.277 a 12.017,12.017 0 0 1 -0.008,-15.497 z m 1.423,16.91 4.276,-4.276 a 5.959,5.959 0 0 0 2.471,1.025 v 6.042 a 11.878,11.878 0 0 1 -6.747,-2.79 z m 8.747,2.795 v -6.046 a 5.963,5.963 0 0 0 2.46,-1.027 l 4.283,4.282 a 11.89,11.89 0 0 1 -6.743,2.791 z m 4.91,-12.956 a 6.006,6.006 0 0 0 -4.91,-4.91 v -6.049 a 12.02,12.02 0 0 1 10.959,10.959 z"
     fill="currentColor"
     id="path240"
     style="stroke:none;stroke-width:2" />
  <rect
     x="253.5002"
     y="39.492085"
     width="27.999594"
     height="28.015831"
     fill="transparent"
     stroke="none"
     class="shape-overlay"
     id="rect248"
     style="fill:none;stroke-width:2" />
  <path
     d="m 69.791474,21.495535 -12.666811,-2.924364 0.449902,-1.94874 8.769331,2.02456 1.349706,-5.846221 -8.76933,-2.024559 0.449902,-1.9487403 4.87185,1.1247553 1.349706,-5.8462204 -4.87185,-1.1247553 0.899804,-3.89748025 -1.94874,-0.44990215 -0.899804,3.8974803 -4.87185,-1.1247553 -1.349707,5.8462204 4.871851,1.1247553 -0.449903,1.9487404 -8.76933,-2.0245598 -1.349706,5.8462208 8.76933,2.024559 -0.449902,1.94874 -12.666811,-2.924363 -1.349706,5.84622 12.666811,2.924364 -0.449902,1.94874 1.94874,0.449902 0.449902,-1.94874 12.666811,2.924363 z M 63.197088,5.6048436 62.747186,7.5535837 59.824076,6.8787306 60.273978,4.9299904 Z m -8.244863,0.1491317 0.449903,-1.9487401 2.92311,0.6748531 -0.449902,1.9487402 z m 10.342735,8.5456327 -0.449902,1.94874 -6.820591,-1.574657 0.449902,-1.94874 z m -16.039823,-1.650476 0.449902,-1.948741 6.82059,1.574658 -0.449902,1.94874 z m -5.697089,6.895156 0.449902,-1.94874 10.718071,2.474461 -0.449902,1.94874 z m 23.384882,5.398825 -10.718071,-2.474461 0.449902,-1.948741 10.718071,2.474462 z"
     fill="currentColor"
     id="path258"
     style="stroke:none;stroke-width:2;fill:#000000;fill-opacity:1" />
  <rect
     transform="rotate(13)"
     x="44.838165"
     y="-14.75506"
     width="28"
     height="28"
     fill="transparent"
     stroke="none"
     class="shape-overlay"
     id="rect266"
     style="fill:none;stroke-width:2" />
</svg>
